<svg xmlns="http://www.w3.org/2000/svg" viewBox="0 0 400 120" width="400" height="120">
  <defs>
    <linearGradient id="bg" x1="0" y1="0" x2="1" y2="1">
      <stop offset="0%" stop-color="#0f4a2a"/>
      <stop offset="100%" stop-color="#14532d"/>
    </linearGradient>
    <linearGradient id="leaf" x1="0" y1="0" x2="0" y2="1">
      <stop offset="0%" stop-color="#7ec8a3"/>
      <stop offset="100%" stop-color="#3a7d5c"/>
    </linearGradient>
  </defs>
  <rect x="0" y="0" width="400" height="120" rx="18" fill="url(#bg)"/>
  <g transform="translate(28, 22)">
    <!-- brand mark -->
    <path d="M44 18 C34 8, 10 8, 10 28 C10 46, 38 54, 64 28 C78 11, 98 12, 98 28 C98 47, 70 54, 44 48 Z" fill="url(#leaf)" opacity="0.9"/>
    <path d="M44 18 L44 48" stroke="#0b2f1c" stroke-width="3" opacity="0.35"/>
    <path d="M98 28 L70 36" stroke="#0b2f1c" stroke-width="2.5" opacity="0.25"/>
    <path d="M10 28 L38 36" stroke="#0b2f1c" stroke-width="2.5" opacity="0.25"/>
    <!-- small berries -->
    <circle cx="44" cy="18" r="3.5" fill="#f6aac6"/>
    <circle cx="70" cy="26" r="3.5" fill="#ffd166"/>
    <circle cx="18" cy="26" r="3.5" fill="#ffd166"/>
  </g>
  <g transform="translate(132, 28)">
    <text x="0" y="26" font-family="system-ui, -apple-system, Segoe UI, Roboto, Ubuntu, Cantarell, sans-serif" font-weight="700" font-size="28" fill="#ffffff">Garlands</text>
    <text x="0.5" y="50" font-family="system-ui, -apple-system, Segoe UI, Roboto, Ubuntu, Cantarell, sans-serif" font-weight="500" font-size="15" fill="#bde6cc" letter-spacing="2">WHOLESALE</text>
    <rect x="-8" y="58" width="170" height="1" fill="#4a6b5a" rx="1"/>
  </g>
</svg>
